<?xml version="1.0" encoding="UTF-8" standalone="no"?><!DOCTYPE svg PUBLIC "-//W3C//DTD SVG 1.1//EN" "http://www.w3.org/Graphics/SVG/1.1/DTD/svg11.dtd"><svg width="100%" height="100%" viewBox="0 0 5373 923" version="1.1" xmlns="http://www.w3.org/2000/svg" xmlns:xlink="http://www.w3.org/1999/xlink" xml:space="preserve" xmlns:serif="http://www.serif.com/" style="fill-rule:evenodd;clip-rule:evenodd;stroke-linejoin:round;stroke-miterlimit:2;"><g><path d="M217.815,913.708l-217.815,-0l289.304,-835.518l235.687,0l220.646,632.348l-220.05,0l-95.541,-356.448l-26.808,-108.349l-27.925,108.349l-157.498,559.618Z" style="fill:#fff;fill-rule:nonzero;"/><path d="M1072.32,547.331l-7.819,-146.327c7.447,-22.713 19.92,-43.005 37.42,-60.877c17.872,-17.872 39.095,-31.834 63.669,-41.887c24.946,-10.426 51.941,-15.638 80.983,-15.638c8.936,-0 17.872,0.558 26.808,1.675c8.936,1.117 15.265,2.793 18.989,5.027l-0,199.943c-4.841,-3.351 -12.473,-6.702 -22.899,-10.053c-10.425,-3.723 -25.132,-5.585 -44.121,-5.585c-29.787,0 -54.92,4.468 -75.398,13.404c-20.106,8.564 -36.489,18.617 -49.148,30.159c-12.287,11.542 -21.782,21.595 -28.484,30.159Zm-189.89,366.377l-0,-622.17l176.486,-0l10.053,110.583l15.638,16.755l0,494.832l-202.177,-0Z" style="fill:#fff;fill-rule:nonzero;"/><path d="M1373.91,872.379l20.106,-139.625c5.957,5.212 18.244,12.287 36.861,21.223c18.989,8.563 41.329,16.382 67.02,23.457c25.691,6.702 52.127,10.053 79.307,10.053c32.393,0.372 55.478,-2.979 69.255,-10.053c14.148,-7.447 21.223,-18.989 21.223,-34.627c-0,-10.798 -5.027,-20.106 -15.08,-27.925c-10.053,-8.192 -23.643,-15.825 -40.771,-22.899c-17.127,-7.074 -36.116,-14.335 -56.967,-21.782c-45.424,-16.382 -81.541,-34.44 -108.349,-54.174c-26.436,-19.734 -45.425,-41.888 -56.967,-66.462c-11.542,-24.946 -17.127,-53.244 -16.755,-84.892c-0,-40.212 11.542,-73.722 34.627,-100.53c23.457,-26.808 54.733,-46.914 93.828,-60.318c39.095,-13.404 82.286,-20.106 129.572,-20.106c51.01,-0 93.643,4.468 127.897,13.404c34.255,8.563 58.271,16.755 72.047,24.574l-17.872,141.859c-7.447,-6.702 -19.175,-13.776 -35.186,-21.223c-16.01,-7.447 -34.068,-13.776 -54.174,-18.989c-20.106,-5.213 -40.212,-7.819 -60.318,-7.819c-34.628,-0 -59.202,3.537 -73.723,10.611c-14.148,7.075 -21.223,17.686 -21.223,31.835c0,16.755 7.633,29.042 22.899,36.861c15.266,7.819 39.281,17.872 72.047,30.159c49.148,17.872 88.615,35.93 118.402,54.175c30.159,18.244 51.94,38.909 65.344,61.993c13.777,23.085 20.665,51.01 20.665,83.776c-0,64.786 -24.016,113.934 -72.047,147.444c-47.658,33.51 -111.141,50.265 -190.449,50.265c-34.254,-0 -66.834,-2.793 -97.737,-8.378c-30.904,-5.212 -58.084,-11.728 -81.541,-19.547c-23.085,-7.819 -40.399,-15.266 -51.941,-22.34Z" style="fill:#fff;fill-rule:nonzero;"/><path d="M1983.8,913.708l0,-622.17l202.178,-0l-0,622.17l-202.178,-0Zm91.594,-697.01c-32.393,0 -59.201,-9.68 -80.424,-29.042c-20.85,-19.733 -31.276,-44.68 -31.276,-74.839c0,-20.478 5.585,-39.281 16.755,-56.408c11.17,-17.128 25.877,-30.718 44.122,-40.771c18.617,-10.425 38.909,-15.638 60.876,-15.638c33.138,0 59.76,9.681 79.866,29.042c20.479,18.989 30.718,43.935 30.718,74.839c-0,30.532 -11.729,56.967 -35.186,79.307c-23.457,22.34 -51.94,33.51 -85.451,33.51Z" style="fill:#fff;fill-rule:nonzero;"/><path d="M2563.52,915.942l-238.89,-634.582l221.167,0l70.223,221.291l41.329,161.965l41.329,-161.965l123.987,-418.876l221.167,0l-299.357,832.167l-180.955,-0Z" style="fill:#fff;fill-rule:nonzero;"/><path d="M3348.77,922.644c-100.53,-0 -177.231,-28.484 -230.102,-85.451c-52.872,-57.339 -79.308,-136.46 -79.308,-237.363c0,-60.318 12.288,-114.306 36.862,-161.965c24.574,-47.659 59.945,-85.265 106.115,-112.817c46.542,-27.553 102.764,-41.329 168.667,-41.329c33.138,-0 65.159,3.909 96.062,11.728c30.904,7.447 58.643,20.665 83.217,39.654c24.574,18.616 44.308,44.307 59.201,77.073c14.894,32.765 22.526,74.094 22.899,123.987c-0,22.34 -0.745,43.563 -2.234,63.669c-1.117,20.106 -2.607,36.861 -4.468,50.265l-462.439,0l11.17,-100.53l270.314,0c1.862,-30.159 0.373,-55.291 -4.468,-75.397c-4.468,-20.479 -12.845,-35.745 -25.132,-45.798c-11.915,-10.053 -28.111,-15.079 -48.59,-15.079c-23.457,-0 -43.377,6.516 -59.759,19.547c-16.011,12.66 -28.112,34.627 -36.303,65.904c-8.191,31.276 -11.915,74.653 -11.17,130.13c0.745,36.117 7.26,65.345 19.547,87.685c12.66,21.968 30.532,37.978 53.617,48.031c23.084,10.053 50.823,15.08 83.216,15.08c20.106,-0 41.143,-1.49 63.111,-4.468c21.968,-2.979 42.26,-6.889 60.877,-11.729c18.989,-4.84 33.51,-9.867 43.563,-15.079l31.276,107.232c-13.777,11.17 -32.952,21.968 -57.526,32.393c-24.202,10.053 -52.499,18.43 -84.892,25.132c-32.021,6.33 -66.462,9.495 -103.323,9.495Z" style="fill:#fff;fill-rule:nonzero;"/><path d="M3924.03,547.331l-7.819,-146.327c7.447,-22.713 19.92,-43.005 37.42,-60.877c17.872,-17.872 39.095,-31.834 63.669,-41.887c24.946,-10.426 51.941,-15.638 80.983,-15.638c8.936,-0 17.872,0.558 26.808,1.675c8.936,1.117 15.266,2.793 18.989,5.027l-0,199.943c-4.84,-3.351 -12.473,-6.702 -22.899,-10.053c-10.425,-3.723 -25.132,-5.585 -44.121,-5.585c-29.787,0 -54.92,4.468 -75.398,13.404c-20.106,8.564 -36.489,18.617 -49.148,30.159c-12.287,11.542 -21.782,21.595 -28.484,30.159Zm-189.89,366.377l-0,-622.17l176.486,-0l10.053,110.583l15.638,16.755l0,494.832l-202.177,-0Z" style="fill:#fff;fill-rule:nonzero;"/><path d="M4225.62,872.379l20.106,-139.625c5.957,5.212 18.244,12.287 36.861,21.223c18.989,8.563 41.329,16.382 67.02,23.457c25.691,6.702 52.127,10.053 79.307,10.053c32.394,0.372 55.478,-2.979 69.255,-10.053c14.148,-7.447 21.223,-18.989 21.223,-34.627c-0,-10.798 -5.027,-20.106 -15.08,-27.925c-10.053,-8.192 -23.643,-15.825 -40.77,-22.899c-17.128,-7.074 -36.117,-14.335 -56.968,-21.782c-45.424,-16.382 -81.541,-34.44 -108.349,-54.174c-26.436,-19.734 -45.425,-41.888 -56.967,-66.462c-11.542,-24.946 -17.127,-53.244 -16.755,-84.892c0,-40.212 11.542,-73.722 34.627,-100.53c23.457,-26.808 54.733,-46.914 93.828,-60.318c39.095,-13.404 82.286,-20.106 129.573,-20.106c51.009,-0 93.642,4.468 127.896,13.404c34.255,8.563 58.271,16.755 72.047,24.574l-17.872,141.859c-7.447,-6.702 -19.175,-13.776 -35.186,-21.223c-16.01,-7.447 -34.068,-13.776 -54.174,-18.989c-20.106,-5.213 -40.212,-7.819 -60.318,-7.819c-34.627,-0 -59.201,3.537 -73.723,10.611c-14.148,7.075 -21.223,17.686 -21.223,31.835c0,16.755 7.633,29.042 22.899,36.861c15.266,7.819 39.281,17.872 72.047,30.159c49.148,17.872 88.615,35.93 118.402,54.175c30.159,18.244 51.941,38.909 65.345,61.993c13.776,23.085 20.664,51.01 20.664,83.776c0,64.786 -24.015,113.934 -72.047,147.444c-47.658,33.51 -111.141,50.265 -190.448,50.265c-34.255,-0 -66.834,-2.793 -97.738,-8.378c-30.904,-5.212 -58.084,-11.728 -81.541,-19.547c-23.085,-7.819 -40.399,-15.266 -51.941,-22.34Z" style="fill:#fff;fill-rule:nonzero;"/><path d="M5109.17,922.644c-100.53,-0 -177.231,-28.484 -230.103,-85.451c-52.871,-57.339 -79.307,-136.46 -79.307,-237.363c0,-60.318 12.287,-114.306 36.861,-161.965c24.574,-47.659 59.946,-85.265 106.116,-112.817c46.541,-27.553 102.764,-41.329 168.667,-41.329c33.138,-0 65.158,3.909 96.062,11.728c30.904,7.447 58.643,20.665 83.217,39.654c24.574,18.616 44.308,44.307 59.201,77.073c14.893,32.765 22.526,74.094 22.898,123.987c0,22.34 -0.744,43.563 -2.234,63.669c-1.117,20.106 -2.606,36.861 -4.468,50.265l-462.439,0l11.171,-100.53l270.314,0c1.862,-30.159 0.372,-55.291 -4.468,-75.397c-4.468,-20.479 -12.845,-35.745 -25.132,-45.798c-11.915,-10.053 -28.112,-15.079 -48.59,-15.079c-23.457,-0 -43.377,6.516 -59.76,19.547c-16.01,12.66 -28.111,34.627 -36.302,65.904c-8.192,31.276 -11.915,74.653 -11.17,130.13c0.744,36.117 7.26,65.345 19.547,87.685c12.66,21.968 30.532,37.978 53.616,48.031c23.085,10.053 50.824,15.08 83.217,15.08c20.106,-0 41.143,-1.49 63.111,-4.468c21.967,-2.979 42.26,-6.889 60.876,-11.729c18.989,-4.84 33.51,-9.867 43.563,-15.079l31.276,107.232c-13.776,11.17 -32.951,21.968 -57.525,32.393c-24.202,10.053 -52.499,18.43 -84.892,25.132c-32.021,6.33 -66.462,9.495 -103.323,9.495Z" style="fill:#fff;fill-rule:nonzero;"/></g></svg>